<?xml version="1.0" standalone="no"?><!DOCTYPE svg PUBLIC "-//W3C//DTD SVG 1.1//EN" "http://www.w3.org/Graphics/SVG/1.1/DTD/svg11.dtd"><svg t="1679495478122" class="icon" viewBox="0 0 1024 1024" version="1.1" xmlns="http://www.w3.org/2000/svg" p-id="4622" xmlns:xlink="http://www.w3.org/1999/xlink" width="200" height="200"><path d="M725.64 793.72c-2.04 0-4.12-0.28-6.16-0.8l-203.44-54.04a24 24 0 1 1 12.32-46.4l167 44.36-32.2-179.56c-1.24-6.84 0.6-13.92 4.96-19.32l127.68-157.88-169.12 19.52c-9.6 1.12-18.88-3.64-23.64-12.04l-78.08-138-82.48 188.84a24.012 24.012 0 0 1-12.96 12.64l-187.08 76 129.12 92.32a23.976 23.976 0 0 1 5.56 33.48 23.976 23.976 0 0 1-33.48 5.56l-164.6-117.68a24.024 24.024 0 0 1-9.88-22.32 24.072 24.072 0 0 1 14.8-19.44l218.4-88.72 97.8-223.92a24.048 24.048 0 0 1 20.76-14.36 24.048 24.048 0 0 1 22.12 12.16l93.88 165.96 211.64-24.4c9.68-1.12 19.08 3.72 23.8 12.28 4.68 8.56 3.76 19.08-2.36 26.64l-157.68 195 36.92 205.84c1.44 8.08-1.32 16.32-7.36 21.88a23.656 23.656 0 0 1-16.24 6.4z" fill="#99999D" p-id="4623"></path><path d="M318.76 899.84c-4.2 0-8.4-1.12-12.2-3.32a24.032 24.032 0 0 1-11.48-24.56l26.44-161.12a23.968 23.968 0 0 1 27.56-19.8c13.08 2.16 21.96 14.48 19.8 27.56l-16.44 100.2 86.28-67.92c10.4-8.2 25.52-6.4 33.72 4s6.4 25.52-4 33.72l-134.8 106.12c-4.36 3.36-9.6 5.12-14.88 5.12z" fill="#3A4ED0" p-id="4624"></path></svg>